<svg width="22" height="31" viewBox="0 0 22 31" fill="none" xmlns="http://www.w3.org/2000/svg">
<path fill-rule="evenodd" clip-rule="evenodd" d="M1.48816 29.787C5.55184 29.0697 8.69048 27.252 10.1221 25.1843C11.6358 22.9981 11.0742 19.9005 8.79139 18.284C6.51464 16.6717 3.4624 17.1955 1.95389 19.3743C1.30824 20.3068 1.10285 21.043 1.07173 21.7016C1.0386 22.4027 1.19478 23.0811 1.40778 23.982L1.40873 23.986C1.61451 24.8563 1.85883 25.8897 1.862 27.1123C1.86412 27.9275 1.75994 28.8097 1.48816 29.787ZM1.13534 30.858C5.61402 30.1794 9.24581 28.2067 10.9443 25.7536C12.7841 23.0963 12.079 19.3867 9.3693 17.4679C6.65964 15.5491 2.97155 16.1477 1.13172 18.805C-0.340988 20.9321 0.0171196 22.4465 0.428018 24.1842C0.794045 25.7321 1.20196 27.4571 0.394944 29.9502C0.286326 30.2857 0.155701 30.6352 0 31C0.383894 30.9619 0.762551 30.9144 1.13534 30.858Z" fill="white"/>
<path fill-rule="evenodd" clip-rule="evenodd" d="M20.6592 1.14332C20.3288 0.909367 19.8765 0.966294 19.6122 1.2827L9.11906 13.8426C9.84352 14.0535 10.5459 14.3869 11.1964 14.8476C11.8406 15.3037 12.3854 15.8503 12.8257 16.4579L20.8931 2.21534C21.1019 1.84677 20.9949 1.38107 20.6592 1.14332ZM21.7632 2.70819C22.2231 1.89635 21.9949 0.863855 21.2371 0.327216C20.4792 -0.209423 19.4418 -0.0731084 18.8448 0.641559L7.21019 14.5678C7.61011 14.5692 8.01126 14.6111 8.40734 14.6945C9.17918 14.8571 9.93178 15.1774 10.6185 15.6637C11.3047 16.1495 11.8593 16.7545 12.2742 17.4317C12.4877 17.7801 12.6642 18.1476 12.8025 18.5279L21.7632 2.70819Z" fill="white" fill-opacity="0.6"/>
</svg>
