<svg width="22" height="31" viewBox="0 0 22 31" fill="none" xmlns="http://www.w3.org/2000/svg">
<path fill-rule="evenodd" clip-rule="evenodd" d="M1.48791 29.787C5.55159 29.0696 8.69024 27.252 10.1219 25.1843C11.6355 22.9981 11.074 19.9005 8.79115 18.2839C6.5144 16.6717 3.46215 17.1955 1.95364 19.3742C1.308 20.3068 1.1026 21.0429 1.07149 21.7016C1.03836 22.4027 1.19454 23.081 1.40754 23.9819L1.40849 23.986C1.61426 24.8563 1.85858 25.8896 1.86176 27.1123C1.86387 27.9275 1.7597 28.8096 1.48791 29.787ZM1.13509 30.8579C5.61378 30.1794 9.24557 28.2067 10.944 25.7536C12.7839 23.0963 12.0787 19.3866 9.36906 17.4678C6.6594 15.5491 2.97131 16.1477 1.13148 18.805C-0.341232 20.932 0.0168755 22.4465 0.427774 24.1841C0.793801 25.732 1.20172 27.4571 0.3947 29.9502C0.286081 30.2857 0.155457 30.6352 -0.000244141 31C0.38365 30.9619 0.762307 30.9144 1.13509 30.8579ZM20.6589 1.14332C20.3285 0.909367 19.8763 0.966294 19.6119 1.2827L9.11882 13.8426C9.84327 14.0535 10.5456 14.3869 11.1962 14.8476C11.8404 15.3037 12.3852 15.8503 12.8255 16.4579L20.8929 2.21534C21.1016 1.84677 20.9947 1.38107 20.6589 1.14332ZM21.763 2.70819C22.2228 1.89635 21.9947 0.863855 21.2368 0.327216C20.479 -0.209423 19.4416 -0.0731084 18.8445 0.641559L7.20995 14.5678C7.60987 14.5692 8.01102 14.6111 8.4071 14.6945C9.17894 14.8571 9.93153 15.1774 10.6183 15.6637C11.3044 16.1495 11.859 16.7545 12.2739 17.4317C12.4874 17.7801 12.6639 18.1476 12.8023 18.5279L21.763 2.70819Z" fill="#E7A8FF"/>
<path d="M19.6119 1.2827C19.8763 0.966294 20.3285 0.909367 20.6589 1.14332C20.9947 1.38107 21.1016 1.84677 20.8929 2.21534L12.8255 16.4579C12.3852 15.8503 11.8404 15.3037 11.1962 14.8476C10.5456 14.3869 9.84327 14.0535 9.11882 13.8426L19.6119 1.2827Z" fill="#E7A8FF"/>
<path d="M10.1219 25.1843C8.69024 27.252 5.55159 29.0696 1.48791 29.787C1.7597 28.8096 1.86387 27.9275 1.86176 27.1123C1.85858 25.8896 1.61426 24.8563 1.40849 23.986L1.40754 23.9819C1.19454 23.081 1.03836 22.4027 1.07149 21.7016C1.1026 21.0429 1.308 20.3068 1.95364 19.3742C3.46215 17.1955 6.5144 16.6717 8.79115 18.2839C11.074 19.9005 11.6355 22.9981 10.1219 25.1843Z" fill="#E7A8FF"/>
</svg>
