<svg width="36" height="30" viewBox="0 0 36 30" fill="none" xmlns="http://www.w3.org/2000/svg">
<path d="M2.6443 9.23777C1.58799 9.56071 0.993488 10.6788 1.31643 11.7351L2.19355 14.604L30.8827 5.83288L30.0056 2.96397C29.6826 1.90766 28.5645 1.31316 27.5082 1.6361L2.6443 9.23777Z" stroke="white"/>
<path fill-rule="evenodd" clip-rule="evenodd" d="M31.7598 8.70181L3.07065 17.473L5.99437 27.036C6.31731 28.0923 7.43541 28.6868 8.49172 28.3639L33.3556 20.7622C34.4119 20.4393 35.0065 19.3212 34.6835 18.2649L31.7598 8.70181ZM7.69379 22.3337C7.20938 20.7492 8.10113 19.0721 9.68559 18.5876C10.4204 18.363 11.1751 18.4343 11.8215 18.7334C12.1902 18.124 12.776 17.6428 13.5108 17.4182C15.0953 16.9337 16.7724 17.8255 17.2568 19.41C17.7413 20.9944 16.8495 22.6716 15.265 23.156C14.5303 23.3806 13.7755 23.3093 13.1291 23.0102C12.7604 23.6197 12.1746 24.1008 11.4398 24.3255C9.85536 24.8099 8.17821 23.9181 7.69379 22.3337Z" stroke="white" stroke-opacity="0.6"/>
</svg>
