<svg width="21" height="29" viewBox="0 0 21 29" fill="none" xmlns="http://www.w3.org/2000/svg">
<path fill-rule="evenodd" clip-rule="evenodd" d="M13.2071 0.5L20.5 7.79289V27C20.5 27.8284 19.8285 28.5 19 28.5H2C1.17153 28.5 0.5 27.8284 0.5 27V2C0.5 1.17163 1.17153 0.5 2 0.5H13.2071ZM1.5 2C1.5 1.72388 1.72386 1.5 2 1.5H12.7929L13.1998 1.90686V7.8H19.0929L19.5 8.20711V27C19.5 27.2761 19.2761 27.5 19 27.5H2C1.72386 27.5 1.5 27.2761 1.5 27V2ZM13.1998 1.91421L19.0855 7.8H13.1998V1.91421Z" fill="#E7A8FF"/>
<path d="M2 1.5C1.72386 1.5 1.5 1.72388 1.5 2V27C1.5 27.2761 1.72386 27.5 2 27.5H19C19.2761 27.5 19.5 27.2761 19.5 27V8.20711L19.0929 7.8H19.0855H13.1998V1.91421V1.90686L12.7929 1.5H2Z" fill="#E7A8FF"/>
</svg>
