<svg width="38" height="23" viewBox="0 0 38 23" fill="none" xmlns="http://www.w3.org/2000/svg">
<path fill-rule="evenodd" clip-rule="evenodd" d="M0 2C0 0.89543 0.895431 0 2 0H36C37.1046 0 38 0.89543 38 2V8C38 9.10457 37.1046 10 36 10H2C0.895432 10 0 9.10457 0 8V2ZM2 1C1.44772 1 1 1.44772 1 2V8C1 8.55228 1.44772 9 2 9H36C36.5523 9 37 8.55228 37 8V2C37 1.44772 36.5523 1 36 1H2Z" fill="white"/>
<path fill-rule="evenodd" clip-rule="evenodd" d="M0 15C0 13.8954 0.895431 13 2 13H36C37.1046 13 38 13.8954 38 15V21C38 22.1046 37.1046 23 36 23H2C0.895432 23 0 22.1046 0 21V15ZM7 17H4V19H7V17ZM12 17V19H34V17H12ZM2 14C1.44772 14 1 14.4477 1 15V21C1 21.5523 1.44772 22 2 22H36C36.5523 22 37 21.5523 37 21V15C37 14.4477 36.5523 14 36 14H2ZM4 16C3.44772 16 3 16.4477 3 17V19C3 19.5523 3.44772 20 4 20H7C7.55228 20 8 19.5523 8 19V17C8 16.4477 7.55228 16 7 16H4ZM11 17C11 16.4477 11.4477 16 12 16H34C34.5523 16 35 16.4477 35 17V19C35 19.5523 34.5523 20 34 20H12C11.4477 20 11 19.5523 11 19V17Z" fill="white" fill-opacity="0.4"/>
<path fill-rule="evenodd" clip-rule="evenodd" d="M7 4H4V6H7V4ZM12 4V6H34V4H12ZM4 3C3.44772 3 3 3.44772 3 4V6C3 6.55228 3.44772 7 4 7H7C7.55228 7 8 6.55228 8 6V4C8 3.44772 7.55228 3 7 3H4ZM11 4C11 3.44772 11.4477 3 12 3H34C34.5523 3 35 3.44772 35 4V6C35 6.55228 34.5523 7 34 7H12C11.4477 7 11 6.55228 11 6V4Z" fill="white" fill-opacity="0.6"/>
</svg>
