<svg width="40" height="40" viewBox="0 0 40 40" fill="none" xmlns="http://www.w3.org/2000/svg">
<g filter="url(#filter0_d)">
<path fill-rule="evenodd" clip-rule="evenodd" d="M20 30C26.6274 30 32 24.6274 32 18C32 11.3726 26.6274 6 20 6C13.3726 6 8 11.3726 8 18C8 24.6274 13.3726 30 20 30Z" fill="url(#paint0_linear)"/>
</g>
<path fill-rule="evenodd" clip-rule="evenodd" d="M21 13C21 12.4477 20.5523 12 20 12C19.4477 12 19 12.4477 19 13V17H15C14.4477 17 14 17.4477 14 18C14 18.5523 14.4477 19 15 19H19V23C19 23.5523 19.4477 24 20 24C20.5523 24 21 23.5523 21 23V19H25C25.5523 19 26 18.5523 26 18C26 17.4477 25.5523 17 25 17H21V13Z" fill="white"/>
<defs>
<filter id="filter0_d" x="0" y="0" width="40" height="40" filterUnits="userSpaceOnUse" color-interpolation-filters="sRGB">
<feFlood flood-opacity="0" result="BackgroundImageFix"/>
<feColorMatrix in="SourceAlpha" type="matrix" values="0 0 0 0 0 0 0 0 0 0 0 0 0 0 0 0 0 0 127 0"/>
<feOffset dy="2"/>
<feGaussianBlur stdDeviation="4"/>
<feColorMatrix type="matrix" values="0 0 0 0 0.462745 0 0 0 0 0.596078 0 0 0 0 0.811765 0 0 0 0.5 0"/>
<feBlend mode="normal" in2="BackgroundImageFix" result="effect1_dropShadow"/>
<feBlend mode="normal" in="SourceGraphic" in2="effect1_dropShadow" result="shape"/>
</filter>
<linearGradient id="paint0_linear" x1="-4" y1="18" x2="20" y2="42" gradientUnits="userSpaceOnUse">
<stop stop-color="#AB9BD3"/>
<stop offset="1" stop-color="#6D9FF0"/>
</linearGradient>
</defs>
</svg>
