<svg width="27" height="29" viewBox="0 0 27 29" fill="none" xmlns="http://www.w3.org/2000/svg">
<path d="M14.8904 1.21471C14.2428 1.16053 13.6093 1.42436 13.1916 1.92217L1.00198 16.4492C0.291975 17.2954 0.402343 18.5569 1.24849 19.2669L11.2071 27.6231C12.0532 28.3331 13.3147 28.2227 14.0247 27.3766L26.2144 12.8496C26.6321 12.3518 26.7819 11.682 26.6161 11.0537L24.8505 4.36279L22.7835 6.82607L21.9015 7.8772L21.2584 8.64365C20.5484 9.4898 19.2869 9.60017 18.4407 8.89017C17.5946 8.18016 17.4842 6.91865 18.1942 6.0725L18.8373 5.30605L19.7193 4.25492L21.7863 1.79164L14.8904 1.21471Z" fill="#E7A8FF"/>
<path d="M18.9603 6.71529C18.6053 7.13837 18.6604 7.76912 19.0835 8.12412C19.5066 8.47912 20.1373 8.42394 20.4923 8.00086L25.6346 1.87251C25.9896 1.44943 25.9345 0.818679 25.5114 0.463677C25.0883 0.108675 24.4576 0.163859 24.1026 0.586934L18.9603 6.71529Z" fill="#E7A8FF"/>
</svg>
