<svg width="25" height="23" viewBox="0 0 25 23" fill="none" xmlns="http://www.w3.org/2000/svg">
<path fill-rule="evenodd" clip-rule="evenodd" d="M14.8489 7.03812L12.0746 1.02352C12.0694 1.01218 12.0655 1.00777 12.0649 1.00704C12.064 1.0061 12.0636 1.00576 12.0628 1.00532C12.0606 1.00398 12.0521 1 12.0379 1C12.0237 1 12.0151 1.00398 12.013 1.00532C12.0122 1.00576 12.0118 1.0061 12.0109 1.00704C12.0103 1.00777 12.0064 1.01218 12.0011 1.02352L9.22687 7.03812C8.92964 7.68252 8.31896 8.12621 7.61425 8.20976L1.03673 8.98963C1.02433 8.9911 1.01893 8.99345 1.01803 8.99385C1.01688 8.99436 1.01641 8.99469 1.01577 8.99524C1.01382 8.99691 1.0074 9.00379 1.003 9.01732C0.998606 9.03085 0.999762 9.04018 1.00035 9.04268C1.00055 9.0435 1.00074 9.04405 1.00136 9.04513C1.00186 9.04598 1.00485 9.05106 1.01402 9.05954L5.87694 13.5566C6.39795 14.0385 6.63121 14.7564 6.49291 15.4524L5.20205 21.949C5.19961 21.9612 5.20018 21.9671 5.20028 21.9681C5.20041 21.9693 5.20058 21.9699 5.20091 21.9706C5.2019 21.973 5.20645 21.9812 5.21796 21.9896C5.22947 21.998 5.2387 21.9998 5.24126 22C5.24183 22 5.24228 22 5.2429 21.9999C5.24319 21.9999 5.24351 21.9998 5.2439 21.9998C5.24486 21.9996 5.25062 21.9983 5.26152 21.9922L11.0412 18.7569C11.6605 18.4103 12.4153 18.4103 13.0345 18.7569L18.8143 21.9922C18.8252 21.9983 18.8309 21.9996 18.8319 21.9998C18.8331 22 18.8337 22 18.8345 22C18.8371 21.9998 18.8463 21.998 18.8578 21.9896C18.8693 21.9812 18.8739 21.973 18.8749 21.9706C18.8752 21.97 18.8753 21.9695 18.8754 21.9686C18.8755 21.9684 18.8754 21.9687 18.8754 21.9686C18.8755 21.9676 18.8762 21.9612 18.8737 21.949L17.5829 15.4524C17.4446 14.7564 17.6778 14.0384 18.1988 13.5566L23.0618 9.05954C23.0709 9.05106 23.0739 9.04598 23.0744 9.04513C23.0751 9.04405 23.0752 9.0435 23.0754 9.04268C23.076 9.04018 23.0772 9.03085 23.0728 9.01732C23.0684 9.00379 23.062 8.99691 23.06 8.99524C23.0596 8.99488 23.0592 8.99461 23.0587 8.99432C23.0585 8.99417 23.0581 8.99402 23.0578 8.99385C23.0569 8.99345 23.0515 8.9911 23.0391 8.98963L16.4615 8.20976C15.7568 8.1262 15.1461 7.68251 14.8489 7.03812ZM12.9827 0.604677C12.6108 -0.201559 11.465 -0.201559 11.0931 0.604677L8.31881 6.61927C8.16725 6.94786 7.85585 7.17411 7.49651 7.21671L0.918992 7.99658C0.0372984 8.10112 -0.316793 9.1909 0.335065 9.79373L5.19799 14.2908C5.46366 14.5365 5.58261 14.9026 5.51209 15.2575L4.22122 21.7541C4.04818 22.6249 4.97521 23.2985 5.74996 22.8648L11.5297 19.6295C11.8454 19.4528 12.2303 19.4528 12.5461 19.6295L18.3258 22.8648C19.1006 23.2985 20.0276 22.6249 19.8546 21.7541L18.5637 15.2575C18.4932 14.9026 18.6121 14.5365 18.8778 14.2908L23.7407 9.79373C24.3926 9.1909 24.0385 8.10112 23.1568 7.99658L16.5793 7.21671C16.2199 7.17411 15.9085 6.94786 15.757 6.61927L12.9827 0.604677Z" fill="#E7A8FF"/>
<path d="M12.0746 1.02352L14.8489 7.03812C15.1461 7.68251 15.7568 8.1262 16.4615 8.20976L23.0391 8.98963C23.0515 8.9911 23.0569 8.99345 23.0578 8.99385C23.0581 8.99402 23.0585 8.99417 23.0587 8.99432C23.0592 8.99461 23.0596 8.99488 23.06 8.99524C23.062 8.99691 23.0684 9.00379 23.0728 9.01732C23.0772 9.03085 23.076 9.04018 23.0754 9.04268C23.0752 9.0435 23.0751 9.04405 23.0744 9.04513C23.0739 9.04598 23.0709 9.05106 23.0618 9.05954L18.1988 13.5566C17.6778 14.0384 17.4446 14.7564 17.5829 15.4524L18.8737 21.949C18.8762 21.9612 18.8755 21.9676 18.8754 21.9686C18.8753 21.9695 18.8752 21.97 18.8749 21.9706C18.8739 21.973 18.8693 21.9812 18.8578 21.9896C18.8463 21.998 18.8371 21.9998 18.8345 22C18.8337 22 18.8331 22 18.8319 21.9998C18.8309 21.9996 18.8252 21.9983 18.8143 21.9922L13.0345 18.7569C12.4153 18.4103 11.6605 18.4103 11.0412 18.7569L5.26152 21.9922C5.25062 21.9983 5.24486 21.9996 5.2439 21.9998C5.24351 21.9998 5.24319 21.9999 5.2429 21.9999C5.24228 22 5.24183 22 5.24126 22C5.2387 21.9998 5.22947 21.998 5.21796 21.9896C5.20645 21.9812 5.2019 21.973 5.20091 21.9706C5.20058 21.9699 5.20041 21.9693 5.20028 21.9681C5.20018 21.9671 5.19961 21.9612 5.20205 21.949L6.49291 15.4524C6.63121 14.7564 6.39795 14.0385 5.87694 13.5566L1.01402 9.05954C1.00485 9.05106 1.00186 9.04598 1.00136 9.04513C1.00074 9.04405 1.00055 9.0435 1.00035 9.04268C0.999762 9.04018 0.998606 9.03085 1.003 9.01732C1.0074 9.00379 1.01382 8.99691 1.01577 8.99524C1.01641 8.99469 1.01688 8.99436 1.01803 8.99385C1.01893 8.99345 1.02433 8.9911 1.03673 8.98963L7.61425 8.20976C8.31896 8.12621 8.92964 7.68252 9.22687 7.03812L12.0011 1.02352C12.0064 1.01218 12.0103 1.00777 12.0109 1.00704C12.0118 1.0061 12.0122 1.00576 12.013 1.00532C12.0151 1.00398 12.0237 1 12.0379 1C12.0521 1 12.0606 1.00398 12.0628 1.00532C12.0636 1.00576 12.064 1.0061 12.0649 1.00704C12.0655 1.00777 12.0694 1.01218 12.0746 1.02352Z" fill="#E7A8FF"/>
</svg>
