<svg width="18" height="16" viewBox="0 0 18 16" fill="none" xmlns="http://www.w3.org/2000/svg">
<path d="M7.86289 0.604962C8.22923 -0.139968 9.29127 -0.139968 9.65761 0.604962L11.5264 4.40499C11.6771 4.71145 11.9738 4.91981 12.3132 4.95756L16.6298 5.43759C17.4963 5.53395 17.8331 6.61564 17.1745 7.18689L14.0726 9.87738C13.7979 10.1157 13.6742 10.4843 13.7496 10.8401L14.586 14.7886C14.7615 15.6168 13.8925 16.2748 13.1429 15.8812L9.22509 13.8243C8.93404 13.6715 8.58646 13.6715 8.29541 13.8243L4.37759 15.8812C3.62796 16.2748 2.75899 15.6168 2.93446 14.7886L3.77094 10.8401C3.84631 10.4843 3.7226 10.1157 3.44789 9.87738L0.345998 7.18689C-0.312597 6.61564 0.0242305 5.53395 0.890708 5.43759L5.20728 4.95756C5.54671 4.91981 5.8434 4.71145 5.99412 4.40499L7.86289 0.604962Z" fill="white"/>
</svg>
